<svg version="1.0" xmlns="http://www.w3.org/2000/svg" fill="#000000" width="40" height="34"
    viewBox="0 0 152.000000 131.000000" preserveAspectRatio="xMidYMid meet">

    <g transform="translate(0.000000,131.000000) scale(0.100000,-0.100000)" stroke="none">
        <path d="M276 1123 c-19 -5 -34 -16 -59 -40 -30 -30 -39 -46 -44 -78 -3 -19
-10 -35 -14 -35 -5 0 -9 -121 -9 -270 0 -148 4 -270 9 -270 5 0 11 -18 15 -40
3 -23 10 -39 15 -36 5 3 12 -5 15 -18 4 -17 15 -25 41 -30 19 -4 35 -11 35
-16 0 -6 45 -10 105 -10 111 0 111 0 165 -55 17 -16 35 -34 40 -40 6 -5 23
-22 38 -37 15 -15 32 -32 37 -38 45 -45 75 -70 83 -70 6 0 13 -6 16 -12 5 -10
7 -10 12 0 3 6 10 12 16 12 5 0 58 48 118 108 60 59 116 113 124 119 10 9 52
13 124 13 85 0 112 3 122 15 7 8 20 15 29 15 21 0 61 71 61 109 0 16 6 32 13
35 10 5 10 7 0 12 -17 7 -19 445 -3 475 6 10 7 19 2 19 -5 0 -12 18 -15 39 -5
44 -20 65 -74 111 -15 13 -88 15 -508 17 -269 0 -499 -1 -509 -4z m961 -133
c3 -11 9 -20 14 -20 5 0 9 -119 9 -266 0 -275 -3 -294 -42 -294 -10 0 -10 -2
1 -9 9 -6 -35 -11 -120 -13 l-135 -3 -27 -30 c-15 -16 -31 -34 -37 -40 -6 -5
-16 -16 -23 -23 -27 -28 -67 -68 -81 -79 -8 -7 -16 -18 -18 -25 -4 -10 -8 -9
-21 3 -9 9 -13 19 -10 23 4 3 1 7 -5 7 -7 1 -18 2 -24 3 -7 0 -13 6 -13 12 0
16 -35 48 -35 32 -1 -7 -6 0 -13 15 -7 16 -15 28 -19 28 -5 -1 -8 1 -8 4 0 10
-35 42 -42 38 -4 -2 -9 6 -13 17 -6 19 -15 20 -126 20 -73 0 -119 4 -119 10 0
6 -9 10 -19 10 -10 0 -22 7 -25 16 -3 9 -6 134 -6 278 0 234 2 264 18 284 l17
22 458 0 c451 0 459 0 464 -20z" />
        <path d="M426 874 c-22 -21 -20 -66 3 -92 18 -22 23 -22 345 -22 211 0 326 4
326 10 0 6 7 10 15 10 11 0 15 11 15 39 0 73 8 71 -360 71 -285 0 -331 -2
-344 -16z" />
        <path d="M445 643 c-26 -7 -35 -21 -35 -60 0 -64 -4 -63 174 -63 l162 0 16 35
c8 19 12 32 8 30 -4 -3 -10 8 -13 24 -5 23 -12 30 -37 33 -45 7 -251 7 -275 1z" />
    </g>
</svg>