<?xml version="1.0" standalone="no"?>
<!DOCTYPE svg PUBLIC "-//W3C//DTD SVG 20010904//EN"
 "http://www.w3.org/TR/2001/REC-SVG-20010904/DTD/svg10.dtd">
<svg version="1.0" xmlns="http://www.w3.org/2000/svg"
 width="40" height="40" viewBox="0 0 173.000000 175.000000"
 preserveAspectRatio="xMidYMid meet" fill="#000000">

<g transform="translate(0.000000,175.000000) scale(0.100000,-0.100000)"
 stroke="none">
<path d="M1107 1433 c-4 -3 -7 -30 -7 -60 0 -38 4 -55 15 -59 8 -4 15 -12 15
-20 0 -8 7 -14 15 -14 8 0 15 -7 15 -15 0 -8 5 -15 10 -15 6 0 19 -9 30 -20
11 -11 20 -24 20 -30 0 -6 -112 -10 -315 -10 l-315 0 0 -65 0 -65 315 0 c307
0 315 -1 315 -20 0 -13 -5 -18 -15 -14 -9 4 -15 0 -15 -10 0 -9 -7 -16 -15
-16 -8 0 -15 -7 -15 -15 0 -8 -7 -15 -15 -15 -8 0 -15 -9 -15 -20 0 -12 -7
-20 -17 -20 -15 0 -16 -2 -3 -10 11 -7 11 -10 2 -10 -9 0 -12 -14 -10 -47 l3
-48 58 -3 c46 -2 57 0 57 13 0 8 7 15 15 15 8 0 15 7 15 15 0 8 7 15 15 15 8
0 15 7 15 15 0 8 9 15 20 15 11 0 20 7 20 15 0 8 7 15 15 15 8 0 15 9 15 20 0
11 7 20 15 20 8 0 15 7 15 15 0 8 7 15 15 15 8 0 15 7 15 15 0 8 7 15 15 15 8
0 15 7 15 15 0 8 7 15 15 15 12 0 15 14 15 65 0 51 -3 65 -15 65 -8 0 -15 7
-15 15 0 8 -7 15 -15 15 -8 0 -15 7 -15 15 0 8 -7 15 -15 15 -8 0 -15 7 -15
15 0 8 -7 15 -15 15 -8 0 -15 7 -15 15 0 8 -7 15 -15 15 -8 0 -15 7 -15 15 0
8 -9 15 -20 15 -11 0 -20 7 -20 15 0 8 -7 15 -15 15 -8 0 -15 9 -15 20 0 11
-6 20 -14 20 -8 0 -16 7 -20 15 -4 10 -20 15 -54 15 -27 0 -52 -3 -55 -7z"/>
<path d="M590 795 c0 -8 -7 -15 -15 -15 -8 0 -15 -7 -15 -15 0 -8 -7 -15 -15
-15 -8 0 -15 -7 -15 -15 0 -8 -7 -15 -15 -15 -8 0 -15 -9 -15 -20 0 -11 -7
-20 -15 -20 -8 0 -15 -7 -15 -15 0 -8 -7 -15 -15 -15 -8 0 -15 -7 -15 -15 0
-8 -9 -15 -20 -15 -11 0 -20 -7 -20 -15 0 -8 -7 -15 -15 -15 -8 0 -15 -7 -15
-15 0 -8 -7 -15 -15 -15 -12 0 -15 -14 -15 -65 0 -51 3 -65 15 -65 8 0 15 -7
15 -15 0 -8 7 -15 15 -15 8 0 15 -7 15 -15 0 -8 9 -15 20 -15 11 0 20 -7 20
-15 0 -8 7 -15 15 -15 8 0 15 -7 15 -15 0 -8 7 -15 15 -15 8 0 15 -7 15 -15 0
-8 7 -15 15 -15 8 0 15 -9 15 -20 0 -11 7 -20 15 -20 8 0 15 -7 15 -15 0 -8 9
-15 21 -15 11 0 18 -4 15 -9 -8 -12 19 -21 65 -21 28 0 38 4 33 12 -5 7 -2 9
8 6 12 -5 15 5 17 53 2 48 -1 59 -13 59 -9 0 -16 7 -16 15 0 8 -7 15 -15 15
-8 0 -15 7 -15 15 0 8 -9 15 -20 15 -11 0 -20 7 -20 15 0 8 -7 15 -15 15 -8 0
-15 7 -15 15 0 13 42 15 315 15 l315 0 0 65 0 65 -315 0 c-273 0 -315 2 -315
15 0 8 7 15 15 15 8 0 15 7 15 15 0 8 9 15 20 15 11 0 20 7 20 15 0 8 7 15 15
15 13 0 20 19 16 44 -1 5 5 6 14 3 12 -5 15 4 15 53 l0 60 -65 0 c-51 0 -65
-3 -65 -15z"/>
</g>
</svg>
