<svg version="1.0" xmlns="http://www.w3.org/2000/svg"
 width="20" height="20" viewBox="0 0 512.000000 512.000000"
 preserveAspectRatio="xMidYMid meet" fill="#fff">

<g transform="translate(0.000000,512.000000) scale(0.100000,-0.100000)" stroke="none">
<path d="M1961 4464 c-83 -22 -165 -71 -224 -133 -99 -104 -137 -210 -137
-383 l0 -108 -268 0 c-208 0 -281 -3 -327 -15 -172 -45 -305 -179 -350 -352
-22 -86 -22 -2380 0 -2466 45 -173 178 -307 350 -352 89 -23 1741 -23 1830 0
87 23 167 70 228 134 99 104 137 210 137 383 l0 107 269 3 c254 3 271 4 297
24 53 39 69 71 69 134 0 63 -16 95 -69 134 -27 21 -38 21 -886 26 -848 5 -859
5 -886 26 -15 11 -37 33 -48 48 -21 27 -21 31 -21 1206 0 1175 0 1179 21 1206
11 15 33 37 48 48 27 21 39 21 697 24 l669 2 0 -268 c0 -296 6 -339 61 -443
38 -70 126 -157 197 -193 93 -47 150 -56 354 -56 l188 0 2 -589 c3 -578 3
-590 24 -617 39 -53 71 -69 134 -69 63 0 95 16 134 69 21 27 21 37 24 809 3
875 3 870 -65 985 -25 43 -116 140 -312 336 -243 241 -284 279 -341 305 -36
17 -89 35 -119 41 -34 6 -344 10 -840 9 -653 0 -795 -3 -840 -15z m2180 -846
c10 -21 19 -51 19 -68 l0 -31 -189 3 c-207 3 -216 6 -265 72 -20 26 -21 43
-24 264 l-3 237 221 -220 c122 -121 230 -237 241 -257z m-2541 -1006 c0 -987
-1 -961 56 -1074 36 -71 123 -159 193 -197 111 -59 132 -61 604 -61 l429 0 -4
-109 c-3 -118 -12 -141 -72 -185 -27 -21 -34 -21 -886 -21 -852 0 -859 0 -886
21 -15 11 -37 33 -48 48 -21 27 -21 34 -24 1179 -1 634 0 1166 3 1184 7 40 49
91 90 109 22 10 96 13 288 14 l257 0 0 -908z"/>
</g>
</svg>
