<svg version="1.0" xmlns="http://www.w3.org/2000/svg" width="25" height="25"
    viewBox="0 0 512.000000 512.000000" fill="#ffffff">

    <g transform="translate(0.000000,512.000000) scale(0.100000,-0.100000)" stroke="none">
        <path d="M2795 5105 c-546 -86 -975 -506 -1070 -1049 -17 -103 -20 -291 -4
-402 24 -177 98 -365 205 -526 185 -279 472 -470 814 -544 118 -25 372 -26
490 -1 520 110 903 493 1011 1010 28 132 30 342 5 471 -107 553 -525 958
-1076 1041 -114 18 -265 18 -375 0z m425 -445 c281 -81 499 -299 586 -585 24
-80 27 -106 27 -235 0 -129 -3 -155 -27 -235 -70 -230 -219 -411 -426 -519
-121 -63 -211 -87 -356 -93 -264 -12 -476 75 -661 271 -66 70 -93 108 -133
189 -71 145 -92 232 -92 387 0 156 21 244 93 388 114 228 322 387 584 448 90
21 308 12 405 -16z" />
        <path d="M802 3620 c-57 -13 -108 -55 -136 -111 -26 -53 -26 -55 -26 -285 l0
-232 -242 -4 -243 -3 -47 -28 c-121 -71 -143 -233 -45 -331 61 -61 90 -66 351
-66 l226 0 0 -227 c0 -131 5 -244 11 -267 15 -54 83 -119 142 -135 95 -27 195
13 244 97 l28 47 3 243 4 242 232 0 c230 0 232 0 285 26 127 64 155 219 59
328 -59 68 -96 76 -360 76 l-218 0 0 216 c0 125 -5 234 -11 259 -17 66 -78
131 -142 150 -55 16 -66 17 -115 5z" />
        <path d="M2165 2123 c-505 -69 -928 -370 -1154 -819 -128 -257 -165 -468 -159
-904 l3 -245 28 -47 c66 -113 219 -140 320 -57 70 57 71 67 78 429 6 307 7
330 32 422 115 434 478 748 920 797 132 15 1392 15 1512 0 447 -55 805 -369
917 -804 18 -70 22 -122 27 -410 l6 -330 28 -47 c71 -121 234 -142 332 -43 65
64 68 85 62 452 -4 275 -7 331 -26 414 -63 286 -186 525 -377 727 -211 225
-448 361 -764 440 l-105 26 -825 2 c-454 1 -838 0 -855 -3z" />
    </g>
</svg>