<?xml version="1.0" standalone="no"?>
<!DOCTYPE svg PUBLIC "-//W3C//DTD SVG 20010904//EN"
 "http://www.w3.org/TR/2001/REC-SVG-20010904/DTD/svg10.dtd">
<svg version="1.0" xmlns="http://www.w3.org/2000/svg"
 width="50" height="40" viewBox="0 0 188.000000 139.000000"
 preserveAspectRatio="xMidYMid meet" fill="#000000">

<g transform="translate(0.000000,139.000000) scale(0.100000,-0.100000)"
 stroke="none">
<path d="M240 1105 c0 -8 -7 -15 -15 -15 -8 0 -15 -7 -15 -15 0 -8 -7 -15 -15
-15 -8 0 -15 -7 -15 -15 0 -8 -7 -15 -15 -15 -10 0 -15 -11 -15 -35 0 -28 -4
-35 -20 -35 -16 0 -20 -7 -20 -30 0 -20 -5 -30 -15 -30 -12 0 -15 -14 -15 -65
0 -51 -3 -65 -15 -65 -13 0 -15 -24 -15 -155 0 -131 2 -155 15 -155 12 0 15
-13 15 -60 0 -47 3 -60 15 -60 10 0 15 -11 15 -35 0 -28 4 -35 20 -35 16 0 20
-7 20 -30 0 -20 5 -30 15 -30 8 0 15 -7 15 -15 0 -8 7 -15 15 -15 8 0 15 -7
15 -15 0 -8 7 -15 15 -15 8 0 15 -7 15 -15 0 -12 13 -15 60 -15 l60 0 0 30 c0
19 -5 30 -14 30 -7 0 -16 14 -20 31 -3 17 -10 28 -16 24 -6 -4 -10 5 -10 20 0
15 -4 24 -10 20 -6 -3 -7 1 -4 9 3 9 1 16 -5 16 -6 0 -11 16 -11 35 0 24 -5
35 -15 35 -12 0 -15 15 -15 75 0 60 -3 75 -15 75 -12 0 -15 17 -15 95 0 84 2
95 18 95 13 0 14 2 3 9 -9 6 -10 11 -2 15 6 4 11 35 11 72 0 50 3 64 15 64 10
0 15 10 15 34 0 21 6 36 15 40 8 3 15 15 15 26 0 11 7 20 15 20 10 0 15 11 15
35 0 24 5 35 15 35 10 0 15 10 15 30 l0 30 -60 0 c-47 0 -60 -3 -60 -15z"/>
<path d="M997 1113 c-4 -3 -7 -39 -7 -80 0 -58 3 -73 15 -73 10 0 15 -10 15
-30 0 -27 -3 -30 -30 -30 -20 0 -30 5 -30 15 0 11 -12 15 -45 15 -33 0 -45 4
-45 15 0 10 -11 15 -35 15 l-35 0 0 -75 0 -75 78 0 c53 0 72 -3 62 -10 -12 -8
-12 -10 5 -11 l20 0 -20 -9 c-17 -7 -17 -9 -2 -9 21 -1 23 -31 2 -31 -8 0 -15
-7 -15 -15 0 -8 -7 -15 -15 -15 -8 0 -15 -7 -15 -15 0 -8 -7 -15 -15 -15 -10
0 -15 -10 -15 -30 0 -20 5 -30 15 -30 8 0 15 -7 15 -15 0 -10 10 -15 30 -15
20 0 30 -5 30 -15 0 -8 7 -15 15 -15 8 0 15 7 15 15 0 8 7 15 15 15 10 0 15
10 15 30 0 23 4 30 20 30 16 0 20 7 20 30 0 20 5 30 15 30 10 0 15 -10 15 -30
0 -20 5 -30 15 -30 10 0 15 -10 15 -30 0 -20 5 -30 15 -30 8 0 15 -7 15 -15 0
-9 9 -15 25 -15 14 0 28 7 31 15 4 8 14 15 24 15 39 0 50 11 50 51 0 32 -3 39
-20 39 -11 0 -20 7 -20 15 0 8 -7 15 -15 15 -8 0 -15 6 -15 14 0 8 -8 17 -17
21 -17 6 -17 7 1 21 11 8 14 14 8 14 -7 0 -12 5 -12 11 0 5 5 7 10 4 6 -3 10
-1 10 4 0 7 30 11 80 11 l80 0 0 30 c0 20 -5 30 -15 30 -11 0 -15 12 -15 45 0
32 -4 45 -14 45 -8 0 -16 -7 -20 -15 -4 -11 -21 -15 -66 -15 -47 0 -60 -3 -60
-15 0 -8 -8 -15 -17 -15 -16 0 -18 11 -15 110 l4 110 -74 0 c-41 0 -78 -3 -81
-7z"/>
<path d="M1490 1090 c0 -23 4 -30 20 -30 16 0 20 -7 21 -37 0 -21 3 -32 6 -25
8 20 19 13 21 -15 1 -14 9 -34 17 -43 8 -9 15 -29 15 -43 0 -17 5 -27 15 -27
12 0 15 -16 15 -80 0 -64 3 -80 15 -80 12 0 15 -16 15 -87 0 -49 -3 -99 -7
-112 -6 -23 -7 -23 -14 -5 -5 11 -8 -12 -8 -58 -1 -62 -4 -78 -16 -78 -10 0
-15 -10 -15 -34 0 -21 -6 -36 -15 -40 -8 -3 -15 -17 -15 -31 0 -16 -6 -25 -15
-25 -10 0 -15 -10 -15 -30 0 -23 -4 -30 -20 -30 -16 0 -20 -7 -20 -30 l0 -30
65 0 c51 0 65 3 65 15 0 8 7 15 15 15 8 0 15 7 15 15 0 8 7 15 15 15 8 0 15 7
15 15 0 8 7 15 15 15 10 0 15 10 15 30 0 23 4 30 20 30 16 0 20 7 20 35 0 24
5 35 15 35 11 0 15 12 15 44 0 27 5 46 13 48 9 4 13 49 15 171 3 146 1 167
-12 167 -13 0 -16 13 -16 65 0 51 -3 65 -15 65 -10 0 -15 10 -15 30 0 23 -4
30 -20 30 -16 0 -20 7 -20 35 0 24 -5 35 -15 35 -8 0 -15 7 -15 15 0 8 -7 15
-15 15 -8 0 -15 7 -15 15 0 8 -7 15 -15 15 -8 0 -15 7 -15 15 0 12 -14 15 -65
15 l-65 0 0 -30z"/>
<path d="M580 320 c0 -11 -7 -20 -15 -20 -8 0 -15 -7 -15 -15 0 -8 -7 -15 -15
-15 -10 0 -15 -10 -15 -30 0 -20 5 -30 15 -30 10 0 15 -10 15 -30 0 -28 3 -30
35 -30 24 0 35 -5 35 -15 0 -9 9 -14 29 -12 18 1 27 7 24 14 -3 8 3 13 16 13
12 0 21 6 21 15 0 8 7 15 15 15 12 0 15 13 15 55 0 54 -1 56 -30 62 -21 4 -30
11 -30 24 0 16 -8 19 -50 19 -43 0 -50 -3 -50 -20z"/>
</g>
</svg>
