<?xml version="1.0" standalone="no"?>
<!DOCTYPE svg PUBLIC "-//W3C//DTD SVG 20010904//EN" "http://www.w3.org/TR/2001/REC-SVG-20010904/DTD/svg10.dtd">
<svg version="1.0" xmlns="http://www.w3.org/2000/svg" width="40" height="40"
    viewBox="0 0 150.000000 152.000000" preserveAspectRatio="xMidYMid meet" fill="#000000">

    <g transform="translate(0.000000,152.000000) scale(0.100000,-0.100000)" stroke="none">
        <path d="M590 1425 c0 -8 -9 -15 -20 -15 -13 0 -20 -7 -20 -20 0 -11 -7 -20
-15 -20 -8 0 -15 -7 -15 -15 0 -8 -7 -15 -15 -15 -8 0 -15 -7 -15 -15 0 -12
-16 -15 -80 -15 -64 0 -80 -3 -80 -15 0 -8 -7 -15 -15 -15 -8 0 -15 -7 -15
-15 0 -8 -7 -15 -15 -15 -8 0 -15 -7 -15 -15 0 -8 -7 -15 -15 -15 -13 0 -15
-59 -15 -470 0 -411 2 -470 15 -470 8 0 15 -9 15 -20 0 -11 7 -20 15 -20 8 0
15 -7 15 -15 0 -8 7 -15 15 -15 8 0 15 -7 15 -15 0 -13 52 -15 410 -15 358 0
410 2 410 15 0 8 7 15 15 15 8 0 15 7 15 15 0 8 7 15 15 15 8 0 15 9 15 20 0
11 7 20 15 20 13 0 15 59 15 470 0 411 -2 470 -15 470 -8 0 -15 7 -15 15 0 8
-7 15 -15 15 -8 0 -15 7 -15 15 0 8 -7 15 -15 15 -8 0 -15 7 -15 15 0 12 -16
15 -80 15 -64 0 -80 3 -80 15 0 8 -7 15 -15 15 -8 0 -15 7 -15 15 0 8 -7 15
-15 15 -8 0 -15 9 -15 20 0 11 -7 20 -15 20 -8 0 -15 7 -15 15 0 13 -24 15
-155 15 -131 0 -155 -2 -155 -15z m-100 -255 c0 -11 7 -20 15 -20 8 0 15 -7
15 -15 0 -8 7 -15 15 -15 8 0 15 -7 15 -15 0 -8 9 -15 20 -15 11 0 20 -7 20
-15 0 -13 24 -15 155 -15 131 0 155 2 155 15 0 8 7 15 15 15 8 0 15 7 15 15 0
8 7 15 15 15 8 0 15 7 15 15 0 8 7 15 15 15 8 0 15 9 15 20 0 17 7 20 50 20
43 0 50 -3 50 -20 0 -11 7 -20 15 -20 13 0 15 -52 15 -405 0 -353 -2 -405 -15
-405 -8 0 -15 -7 -15 -15 0 -13 -45 -15 -345 -15 -300 0 -345 2 -345 15 0 8
-7 15 -15 15 -13 0 -15 52 -15 405 0 353 2 405 15 405 8 0 15 9 15 20 0 17 7
20 45 20 38 0 45 -3 45 -20z" />
        <path d="M490 810 l0 -60 65 0 65 0 0 60 0 60 -65 0 -65 0 0 -60z" />
        <path d="M680 810 l0 -60 155 0 155 0 0 60 0 60 -155 0 -155 0 0 -60z" />
        <path d="M497 613 c-4 -3 -7 -30 -7 -60 l0 -53 65 0 65 0 0 60 0 60 -58 0
c-32 0 -62 -3 -65 -7z" />
        <path d="M682 563 l3 -58 153 -3 152 -3 0 61 0 60 -155 0 -156 0 3 -57z" />
    </g>
</svg>